<?xml version="1.0" encoding="UTF-8"?><svg id="Layer_2" xmlns="http://www.w3.org/2000/svg" viewBox="0 0 1318.59 265.72"><defs><style>.cls-1{fill:#fff;}.cls-2{fill:#ce483a;}</style></defs><g id="Layer_1-2"><g><path class="cls-1" d="M335.03,208.24c-5.15,4.08-10.78,7.59-16.9,10.51-6.12,2.93-12.82,5.15-20.09,6.65-7.28,1.51-15.43,2.26-24.48,2.26-13.66,0-26.34-2.49-38.05-7.45s-21.82-11.75-30.34-20.36c-8.52-8.6-15.17-18.76-19.96-30.47-4.79-11.71-7.19-24.22-7.19-37.52v-.53c0-13.31,2.4-25.77,7.19-37.39,4.79-11.62,11.44-21.82,19.96-30.6,8.52-8.78,18.72-15.7,30.6-20.76,11.88-5.06,25.01-7.58,39.38-7.58,8.69,0,16.63,.71,23.82,2.13,7.18,1.42,13.7,3.37,19.56,5.85,5.85,2.49,11.26,5.5,16.23,9.05,4.96,3.55,9.58,7.45,13.84,11.71l-26.08,30.07c-7.28-6.56-14.68-11.71-22.22-15.43-7.54-3.72-16.01-5.59-25.41-5.59-7.81,0-15.04,1.51-21.69,4.52-6.65,3.02-12.37,7.18-17.16,12.51-4.79,5.32-8.52,11.49-11.18,18.49-2.66,7.01-3.99,14.5-3.99,22.49v.53c0,7.98,1.33,15.53,3.99,22.62,2.66,7.1,6.34,13.31,11.04,18.63,4.7,5.32,10.38,9.54,17.03,12.64,6.65,3.11,13.97,4.66,21.95,4.66,10.64,0,19.65-1.95,27.01-5.85,7.36-3.9,14.68-9.22,21.95-15.97l26.08,26.34c-4.79,5.15-9.76,9.76-14.9,13.84Z"/><path class="cls-1" d="M492.98,224.47l-39.92-59.61h-32.2v59.61h-40.98V38.19h85.16c22.18,0,39.43,5.41,51.76,16.23,12.33,10.82,18.5,25.91,18.5,45.24v.53c0,15.08-3.68,27.37-11.04,36.86-7.36,9.49-16.99,16.46-28.87,20.89l45.51,66.53h-47.9Zm.8-122.68c0-8.87-2.84-15.52-8.52-19.96-5.68-4.43-13.57-6.65-23.68-6.65h-40.72v53.49h41.51c10.11,0,17.87-2.4,23.28-7.19,5.41-4.79,8.12-11.18,8.12-19.16v-.53Z"/><path class="cls-1" d="M570.84,224.47V38.19h40.98V224.47h-40.98Z"/><path class="cls-1" d="M801.61,208.24c-5.15,4.08-10.78,7.59-16.9,10.51-6.12,2.93-12.82,5.15-20.09,6.65-7.28,1.51-15.43,2.26-24.48,2.26-13.66,0-26.34-2.49-38.05-7.45-11.71-4.96-21.82-11.75-30.34-20.36-8.52-8.6-15.17-18.76-19.96-30.47s-7.19-24.22-7.19-37.52v-.53c0-13.31,2.4-25.77,7.19-37.39,4.79-11.62,11.44-21.82,19.96-30.6s18.71-15.7,30.6-20.76c11.88-5.06,25.02-7.58,39.38-7.58,8.69,0,16.63,.71,23.82,2.13,7.18,1.42,13.71,3.37,19.56,5.85,5.85,2.49,11.26,5.5,16.23,9.05,4.96,3.55,9.58,7.45,13.84,11.71l-26.08,30.07c-7.28-6.56-14.68-11.71-22.22-15.43-7.54-3.72-16.01-5.59-25.41-5.59-7.81,0-15.04,1.51-21.69,4.52-6.65,3.02-12.38,7.18-17.16,12.51-4.79,5.32-8.52,11.49-11.18,18.49-2.66,7.01-3.99,14.5-3.99,22.49v.53c0,7.98,1.33,15.53,3.99,22.62,2.66,7.1,6.34,13.31,11.04,18.63,4.7,5.32,10.38,9.54,17.03,12.64,6.65,3.11,13.97,4.66,21.96,4.66,10.64,0,19.65-1.95,27.01-5.85,7.36-3.9,14.68-9.22,21.96-15.97l26.08,26.34c-4.79,5.15-9.76,9.76-14.9,13.84Z"/><rect class="cls-2" x="870.23" width="448.36" height="265.72" rx="19.93" ry="19.93"/><g><path class="cls-1" d="M925.88,47.14h26.94V194.09h44.33v24.49h-71.27V47.14Z"/><path class="cls-1" d="M1022.59,47.14h26.94V218.58h-26.94V47.14Z"/><path class="cls-1" d="M1079.25,47.14h27.19l17.63,132.99h.49l17.63-132.99h24.74l-25.96,171.45h-35.76l-25.96-171.45Z"/><path class="cls-1" d="M1193.98,47.14h73.48v24.49h-46.54v45.31h36.98v24.49h-36.98v52.66h46.54v24.49h-73.48V47.14Z"/></g><g><path class="cls-2" d="M97.86,79.83c-9.72-5.86-21.11-9.23-33.28-9.23C28.91,70.6,0,99.51,0,135.18c0,15.91,5.76,30.46,15.3,41.72L97.86,79.83Z"/><path class="cls-2" d="M31.3,190.53c9.72,5.86,21.11,9.23,33.28,9.23,35.67,0,64.58-28.91,64.58-64.58,0-15.91-5.76-30.46-15.3-41.72L31.3,190.53Z"/></g></g></g></svg>